<?xml version="1.0" encoding="utf-8"?>
<!-- Generator: Adobe Illustrator 13.0.2, SVG Export Plug-In . SVG Version: 6.00 Build 14948)  -->
<!DOCTYPE svg PUBLIC "-//W3C//DTD SVG 1.1//EN" "http://www.w3.org/Graphics/SVG/1.1/DTD/svg11.dtd">
<svg version="1.1" id="Layer_1" xmlns="http://www.w3.org/2000/svg" xmlns:xlink="http://www.w3.org/1999/xlink" x="0px" y="0px"
	 width="720px" height="720px" viewBox="0 0 159.236 159.235" enable-background="new 0 0 159.236 159.235"
	 xml:space="preserve">
<g>
	<path fill-rule="evenodd" clip-rule="evenodd" fill="#FFFFFF" d="M19.918,79.017c0-32.972,26.729-59.7,59.7-59.7
		c32.971,0,59.7,26.729,59.7,59.7s-26.729,59.7-59.7,59.7C46.646,138.717,19.918,111.989,19.918,79.017"/>
	<path fill-rule="evenodd" clip-rule="evenodd" fill="#3BFFFD" d="M38.827,76.076c-0.109-0.104-0.212-0.211-0.31-0.317v0.09
		C38.619,75.927,38.722,76.003,38.827,76.076L38.827,76.076z M116.329,76.746l-0.087-0.057l-0.327,0.135
		C116.054,76.803,116.193,76.776,116.329,76.746L116.329,76.746z M139.229,75.728c-1.706-31.442-27.741-56.412-59.609-56.412
		c-32.271,0-58.56,25.603-59.664,57.604c0.922,0.385,1.921,0.597,2.964,0.597c2.057,0,3.941-0.816,5.4-2.175v0.507
		c1.361,1.051,3.015,1.668,4.8,1.668c1.962,0,3.766-0.743,5.196-1.992c-0.646-0.784-0.996-1.628-0.996-2.508
		c0-2.073,1.951-3.949,5.105-5.307c-5.346-0.751-9.305-3.462-9.305-6.693c0-3.492,4.625-6.379,10.626-6.837
		c0.913-1.793,3.198-3.063,5.874-3.063l0.333,0.006c0.539-7.371,7.705-13.205,16.467-13.205c5.445,0,10.273,2.251,13.279,5.727
		c2.798-2.413,6.834-3.927,11.321-3.927c8.449,0,15.301,5.372,15.301,12c0,2.498-0.976,4.82-2.642,6.741
		c1.055-0.093,2.137-0.142,3.24-0.142c10.604,0,19.2,4.433,19.2,9.9c0,2.798-2.253,5.327-5.874,7.128
		c1.336,0.992,2.944,1.572,4.674,1.572c2.057,0,3.941-0.818,5.401-2.175v0.507c1.359,1.052,3.014,1.669,4.799,1.669
		C136.613,76.918,138.014,76.486,139.229,75.728"/>
	<path fill-rule="evenodd" clip-rule="evenodd" fill="#00007A" d="M38.827,76.076c-0.109-0.104-0.212-0.211-0.31-0.317v0.09
		C38.619,75.927,38.722,76.003,38.827,76.076L38.827,76.076z M116.329,76.746l-0.087-0.057l-0.327,0.135
		C116.054,76.803,116.193,76.776,116.329,76.746L116.329,76.746z M139.229,75.728c-1.706-31.442-27.741-56.412-59.609-56.412
		c-32.271,0-58.56,25.603-59.664,57.604c0.922,0.385,1.921,0.597,2.964,0.597c2.057,0,3.941-0.816,5.4-2.175v0.507
		c1.361,1.051,3.015,1.668,4.8,1.668c1.962,0,3.766-0.743,5.196-1.992c-0.646-0.784-0.996-1.628-0.996-2.508
		c0-2.073,1.951-3.949,5.105-5.307c-5.346-0.751-9.305-3.462-9.305-6.693c0-3.492,4.625-6.379,10.626-6.837
		c0.913-1.793,3.198-3.063,5.874-3.063l0.333,0.006c0.539-7.371,7.705-13.205,16.467-13.205c5.445,0,10.273,2.251,13.279,5.727
		c2.798-2.413,6.834-3.927,11.321-3.927c8.449,0,15.301,5.372,15.301,12c0,2.498-0.976,4.82-2.642,6.741
		c1.055-0.093,2.137-0.142,3.24-0.142c10.604,0,19.2,4.433,19.2,9.9c0,2.798-2.253,5.327-5.874,7.128
		c1.336,0.992,2.944,1.572,4.674,1.572c2.057,0,3.941-0.818,5.401-2.175v0.507c1.359,1.052,3.014,1.669,4.799,1.669
		C136.613,76.918,138.014,76.486,139.229,75.728L139.229,75.728z M20.008,82.343c1.726,31.427,27.755,56.373,59.611,56.373
		c32.275,0,58.568-25.61,59.664-57.621c-1.228,0.777-2.649,1.222-4.164,1.222c-1.785,0-3.439-0.617-4.799-1.668v-0.506
		c-1.461,1.356-3.345,2.174-5.401,2.174c-1.785,0-3.438-0.617-4.8-1.668v-0.506c-1.46,1.356-3.343,2.174-5.4,2.174
		c-1.783,0-3.438-0.617-4.8-1.668v-0.506c-1.46,1.356-3.344,2.174-5.399,2.174c-1.784,0-3.44-0.617-4.801-1.668v-0.506
		c-1.46,1.356-3.344,2.174-5.398,2.174c-1.786,0-3.44-0.617-4.801-1.668v-0.506c-1.46,1.356-3.345,2.174-5.4,2.174
		c-1.785,0-3.439-0.617-4.8-1.668v-0.506c-1.461,1.356-3.344,2.174-5.4,2.174c-1.785,0-3.439-0.617-4.8-1.668v0.094
		c-1.46,1.357-3.344,2.176-5.4,2.176c-1.784,0-3.439-0.619-4.8-1.668v-0.508c-1.46,1.357-3.344,2.176-5.4,2.176
		c-1.784,0-3.439-0.619-4.8-1.668v-0.508c-1.46,1.357-3.344,2.176-5.4,2.176c-1.785,0-3.439-0.619-4.801-1.668v-0.508
		c-1.46,1.357-3.344,2.176-5.399,2.176c-1.785,0-3.439-0.619-4.8-1.668v-0.508c-1.461,1.357-3.344,2.176-5.4,2.176
		C21.897,82.918,20.915,82.715,20.008,82.343"/>
	<path fill-rule="evenodd" clip-rule="evenodd" fill="#0C64CB" d="M38.827,76.076c-0.109-0.104-0.212-0.211-0.31-0.317v0.09
		C38.619,75.927,38.722,76.003,38.827,76.076L38.827,76.076z M116.329,76.746l-0.087-0.057l-0.327,0.135
		C116.054,76.803,116.193,76.776,116.329,76.746L116.329,76.746z M139.229,75.728c-1.706-31.442-27.741-56.412-59.609-56.412
		c-32.271,0-58.56,25.603-59.664,57.604c0.922,0.385,1.921,0.597,2.964,0.597c2.057,0,3.941-0.816,5.4-2.175v0.507
		c1.361,1.051,3.015,1.668,4.8,1.668c1.962,0,3.766-0.743,5.196-1.992c-0.646-0.784-0.996-1.628-0.996-2.508
		c0-2.073,1.951-3.949,5.105-5.307c-5.346-0.751-9.305-3.462-9.305-6.693c0-3.492,4.625-6.379,10.626-6.837
		c0.913-1.793,3.198-3.063,5.874-3.063l0.333,0.006c0.539-7.371,7.705-13.205,16.467-13.205c5.445,0,10.273,2.251,13.279,5.727
		c2.798-2.413,6.834-3.927,11.321-3.927c8.449,0,15.301,5.372,15.301,12c0,2.498-0.976,4.82-2.642,6.741
		c1.055-0.093,2.137-0.142,3.24-0.142c10.604,0,19.2,4.433,19.2,9.9c0,2.798-2.253,5.327-5.874,7.128
		c1.336,0.992,2.944,1.572,4.674,1.572c2.057,0,3.941-0.818,5.401-2.175v0.507c1.359,1.052,3.014,1.669,4.799,1.669
		C136.613,76.918,138.014,76.486,139.229,75.728"/>
	<path fill="#FFFFFF" d="M61.489,103.545h-5.448v1.701h3.347v4.955c-0.491,0.246-1.445,0.444-2.84,0.444
		c-3.865,0-6.36-2.492-6.36-6.712c0-4.169,2.619-6.688,6.634-6.688c1.664,0,2.766,0.312,3.647,0.756l0.54-1.756
		c-0.714-0.362-2.238-0.801-4.155-0.801c-5.553,0-8.968,3.633-8.968,8.6c0,2.594,0.884,4.818,2.307,6.202
		c1.62,1.557,3.682,2.199,6.186,2.199c2.234,0,4.148-0.543,5.109-0.912L61.489,103.545z"/>
	<polygon fill="#FFFFFF" points="68.088,112.246 70.288,112.246 70.288,104.746 76.546,104.746 76.546,102.946 70.288,102.946 
		70.288,97.447 77.062,97.447 77.062,95.646 68.087,95.646 	"/>
	<path fill="#FFFFFF" d="M83.588,112.15c1.111,0.146,2.37,0.195,3.925,0.195c3.234,0,5.802-0.834,7.381-2.379
		c1.529-1.52,2.396-3.727,2.396-6.425c0-2.673-0.866-4.61-2.371-5.959c-1.456-1.349-3.653-2.038-6.739-2.038
		c-1.702,0-3.258,0.15-4.591,0.346V112.15z M85.788,97.371c0.566-0.123,1.404-0.224,2.512-0.224c4.531,0,6.747,2.454,6.688,6.44
		c0,4.508-2.479,7.109-7.041,7.058c-0.834,0-1.619,0-2.159-0.1V97.371z"/>
	<polygon fill="#FFFFFF" points="103.388,112.246 112.683,112.246 112.683,110.445 105.589,110.445 105.589,95.646 103.389,95.646 	
		"/>
	<path fill="none" stroke="#000000" stroke-linecap="round" stroke-miterlimit="3.8637" d="M0.5,79.617
		C0.5,35.922,35.922,0.5,79.618,0.5s79.118,35.422,79.118,79.117c0,43.698-35.422,79.118-79.118,79.118S0.5,123.315,0.5,79.617
		L0.5,79.617z M18.118,79.017c0-33.966,27.534-61.5,61.5-61.5s61.5,27.534,61.5,61.5c0,33.968-27.534,61.5-61.5,61.5
		S18.118,112.984,18.118,79.017L18.118,79.017z"/>
	<path d="M11.292,109.244c0.04,0.716,0.23,1.429,0.562,2.116c0.407,0.845,0.967,1.518,1.664,2.015
		c0.692,0.485,1.454,0.771,2.308,0.845c0.838,0.068,1.65-0.088,2.416-0.457c1.025-0.492,1.774-1.271,2.226-2.32
		c0.607-1.361,0.544-2.788-0.183-4.296c-0.591-1.228-1.441-2.039-2.525-2.419c-1.085-0.38-2.255-0.273-3.51,0.316l1.682,3.491
		l0.788-0.38l-1.242-2.579c0.792-0.257,1.568-0.2,2.318,0.146c0.738,0.353,1.317,0.947,1.718,1.781
		c0.331,0.688,0.477,1.394,0.439,2.12c-0.039,0.726-0.25,1.383-0.644,1.975c-0.383,0.587-0.887,1.038-1.495,1.331
		c-0.586,0.282-1.225,0.396-1.917,0.341c-0.681-0.06-1.326-0.304-1.907-0.731c-0.592-0.422-1.043-0.954-1.346-1.585
		c-0.25-0.519-0.387-1.09-0.422-1.739c-0.024-0.654,0.075-1.312,0.298-1.975l-0.901-0.343c-0.264,0.835-0.371,1.62-0.325,2.349
		L11.292,109.244z"/>
	<path d="M14.71,96.626c0.244,0.162,0.479,0.379,0.679,0.658c0.197,0.267,0.354,0.573,0.45,0.896c0.2,0.671,0.129,1.306-0.198,1.912
		c-0.331,0.596-0.87,1.018-1.597,1.247l-1.718-5.749c-0.859,0.271-1.521,0.716-1.957,1.355c-0.633,0.894-0.779,1.89-0.457,2.968
		c0.319,1.066,0.964,1.786,1.957,2.181c0.782,0.302,1.575,0.338,2.378,0.099c0.85-0.254,1.531-0.771,2.038-1.562
		c0.507-0.791,0.599-1.705,0.288-2.748c-0.14-0.467-0.34-0.877-0.595-1.205s-0.559-0.603-0.908-0.811
		c-0.365-0.217-0.803-0.373-1.314-0.468l-0.152,0.802C14.086,96.331,14.454,96.469,14.71,96.626L14.71,96.626z M13.313,101.467
		c-0.637,0.008-1.143-0.114-1.539-0.349c-0.531-0.337-0.896-0.815-1.082-1.438c-0.114-0.383-0.142-0.778-0.086-1.16
		c0.052-0.395,0.185-0.734,0.384-1.028c0.191-0.279,0.5-0.554,0.898-0.791L13.313,101.467z"/>
	<path d="M9.233,92.487c0.76,0.504,1.596,0.679,2.498,0.541c0.914-0.141,1.668-0.584,2.25-1.331
		c0.583-0.734,0.802-1.615,0.647-2.628c-0.153-1.001-0.626-1.776-1.402-2.302c-0.778-0.538-1.63-0.737-2.545-0.598
		c-0.914,0.141-1.647,0.557-2.222,1.263c-0.627,0.779-0.869,1.677-0.714,2.689C7.902,91.147,8.401,91.931,9.233,92.487L9.233,92.487
		z M9.076,88.072c0.441-0.586,1.021-0.928,1.75-1.039c0.482-0.074,0.931-0.029,1.375,0.143c0.454,0.158,0.812,0.433,1.093,0.781
		c0.283,0.361,0.46,0.777,0.53,1.234c0.072,0.47,0.027,0.919-0.135,1.348c-0.164,0.417-0.423,0.786-0.809,1.072
		c-0.372,0.297-0.787,0.475-1.269,0.548c-0.729,0.111-1.385-0.041-1.981-0.468c-0.596-0.428-0.948-0.993-1.056-1.697
		C8.468,89.302,8.635,88.657,9.076,88.072L9.076,88.072z"/>
	<path d="M16.201,83.054l-0.011-0.85l-3.575,0.043c0.433-0.368,0.753-0.771,0.973-1.212c0.207-0.453,0.314-0.93,0.307-1.466
		c-0.011-0.938-0.359-1.733-1.054-2.388c-0.683-0.654-1.512-0.982-2.487-0.97c-0.95,0.012-1.758,0.359-2.437,1.042
		c-0.667,0.671-0.995,1.487-0.983,2.425c0.007,0.537,0.125,1.036,0.368,1.471c0.23,0.435,0.585,0.817,1.052,1.149l-1.225,0.016
		l0.011,0.85L16.201,83.054z M8.094,78.415c0.233-0.403,0.554-0.732,0.963-0.974c0.422-0.243,0.871-0.361,1.333-0.366
		c0.475-0.005,0.914,0.114,1.342,0.346c0.428,0.232,0.769,0.553,1.011,0.95c0.243,0.397,0.36,0.833,0.366,1.283
		c0.006,0.475-0.101,0.914-0.334,1.342c-0.232,0.415-0.541,0.744-0.938,0.974c-0.41,0.23-0.858,0.349-1.358,0.354
		c-0.762,0.009-1.403-0.233-1.921-0.739c-0.519-0.494-0.789-1.116-0.798-1.853C7.754,79.257,7.862,78.818,8.094,78.415L8.094,78.415
		z"/>
	<path d="M13.805,73.703l0.104-0.843l-2.407-0.298c-0.881-0.109-1.472-0.22-1.784-0.346c-0.481-0.186-0.869-0.511-1.153-0.961
		c-0.284-0.451-0.401-0.931-0.338-1.44c0.057-0.459,0.213-0.805,0.47-1.05c0.246-0.259,0.604-0.404,1.052-0.462
		c0.256-0.032,0.768,0.007,1.524,0.1l3.139,0.388l0.104-0.843l-3.387-0.419c-0.893-0.11-1.574-0.106-2.018,0.028
		c-0.445,0.134-0.814,0.365-1.109,0.719c-0.296,0.354-0.473,0.773-0.535,1.269c-0.06,0.484-0.004,0.945,0.169,1.381
		c0.171,0.45,0.46,0.863,0.876,1.267l-3.734-0.462l-0.104,0.843L13.805,73.703z"/>
	<polygon points="15.082,63.027 17.649,65.014 17.872,64.129 10.053,58.072 9.83,58.957 14.219,62.358 8.727,63.333 8.51,64.194 	
		"/>
	<path d="M11.344,54.009c-0.18,0.493-0.178,0.96,0.018,1.404c0.189,0.429,0.529,0.739,0.998,0.911
		c0.364,0.133,0.72,0.143,1.074,0.047c0.355-0.096,0.79-0.377,1.278-0.837c0.459-0.418,0.807-0.677,1.039-0.764
		c0.232-0.088,0.457-0.086,0.692,0c0.282,0.103,0.474,0.307,0.604,0.607c0.118,0.296,0.125,0.605,0.004,0.934
		c-0.167,0.458-0.561,0.806-1.169,1.05l0.391,0.715c0.347-0.113,0.669-0.301,0.942-0.574c0.273-0.273,0.48-0.583,0.613-0.947
		c0.197-0.54,0.184-1.05-0.034-1.543c-0.231-0.497-0.601-0.832-1.105-1.017c-0.364-0.133-0.731-0.148-1.102-0.044
		c-0.359,0.108-0.803,0.412-1.335,0.883c-0.427,0.403-0.766,0.638-1.009,0.722c-0.232,0.088-0.462,0.097-0.661,0.024
		c-0.223-0.082-0.388-0.248-0.495-0.501c-0.107-0.252-0.108-0.505-0.014-0.763c0.15-0.411,0.512-0.745,1.082-1.029l-0.339-0.71
		c-0.766,0.385-1.259,0.857-1.469,1.432L11.344,54.009z"/>
	<path d="M10.955,48.602c0.069,0.182,0.191,0.305,0.373,0.388c0.171,0.077,0.345,0.087,0.527,0.018
		c0.182-0.069,0.322-0.198,0.399-0.369c0.077-0.171,0.081-0.361,0.012-0.543s-0.191-0.305-0.362-0.383
		c-0.182-0.082-0.356-0.092-0.538-0.023c-0.182,0.069-0.322,0.198-0.399,0.368C10.89,48.229,10.886,48.419,10.955,48.602
		L10.955,48.602z M19.327,52.294l0.349-0.775l-6.051-2.728l-0.349,0.775L19.327,52.294z"/>
	<path d="M18.432,41.035c-0.327,0.144-0.653,0.361-0.977,0.65s-0.589,0.627-0.807,1.007c-0.348,0.607-0.534,1.235-0.543,1.879
		c-0.008,0.643,0.137,1.245,0.453,1.8s0.755,0.994,1.309,1.311c0.824,0.472,1.704,0.572,2.62,0.304
		c0.923-0.278,1.65-0.87,2.172-1.781c0.341-0.596,0.527-1.196,0.559-1.782c0.039-0.597-0.058-1.157-0.315-1.664l-0.726,0.362
		c0.362,0.927,0.301,1.814-0.184,2.66c-0.267,0.466-0.607,0.834-1.024,1.085c-0.423,0.262-0.873,0.393-1.36,0.388
		c-0.504,0-0.957-0.115-1.369-0.352c-0.651-0.372-1.063-0.911-1.252-1.638c-0.178-0.721-0.07-1.438,0.334-2.143
		c0.509-0.889,1.243-1.391,2.207-1.516l-0.034-0.797c-0.381,0.012-0.738,0.082-1.065,0.226L18.432,41.035z"/>
	<path d="M23.759,32.674l0.968,0.751c-0.572-0.017-1.086,0.075-1.532,0.282c-0.456,0.2-0.851,0.526-1.18,0.951
		c-0.575,0.741-0.806,1.589-0.687,2.537c0.137,0.945,0.572,1.709,1.323,2.292c0.77,0.598,1.629,0.837,2.568,0.727
		c0.949-0.102,1.706-0.527,2.281-1.268c0.322-0.415,0.532-0.869,0.64-1.355c0.1-0.476,0.089-0.991-0.035-1.546l0.899,0.697
		l0.521-0.671l-5.244-4.069L23.759,32.674z M24.458,34.118c0.719-0.091,1.376,0.103,1.978,0.57c0.395,0.306,0.682,0.671,0.87,1.102
		c0.178,0.423,0.226,0.871,0.161,1.343c-0.073,0.481-0.252,0.896-0.536,1.261c-0.284,0.365-0.641,0.642-1.073,0.812
		c-0.433,0.17-0.899,0.22-1.38,0.147c-0.481-0.073-0.904-0.242-1.279-0.533c-0.365-0.284-0.652-0.648-0.842-1.096
		c-0.18-0.441-0.238-0.896-0.18-1.358c0.057-0.462,0.237-0.876,0.528-1.252C23.157,34.532,23.748,34.198,24.458,34.118
		L24.458,34.118z"/>
	<rect x="27.984" y="25.874" transform="matrix(-0.6879 0.7258 -0.7258 -0.6879 70.071 30.8176)" width="0.85" height="9.201"/>
	<polygon points="37.545,28.177 38.254,27.623 35.539,24.144 38.377,21.929 37.839,21.239 35.001,23.454 33.271,21.237 
		36.109,19.022 35.571,18.332 32.024,21.101 	"/>
	<rect x="40.48" y="15.416" transform="matrix(-0.8356 0.5494 -0.5494 -0.8356 86.0793 14.2673)" width="0.85" height="9.199"/>
	<path d="M44.406,19.107c0.446,0.838,0.875,1.404,1.286,1.723c0.405,0.309,0.868,0.487,1.366,0.519
		c0.509,0.026,1.043-0.116,1.616-0.422c0.574-0.305,0.989-0.668,1.241-1.1c0.263-0.438,0.368-0.904,0.338-1.413
		c-0.03-0.508-0.259-1.179-0.688-1.984l-1.527-2.869l-0.772,0.411l1.457,2.736c0.388,0.729,0.613,1.232,0.654,1.493
		c0.066,0.39-0.003,0.766-0.184,1.118c-0.186,0.368-0.486,0.655-0.917,0.884c-0.419,0.223-0.836,0.318-1.246,0.267
		c-0.42-0.045-0.772-0.226-1.07-0.52c-0.212-0.213-0.492-0.659-0.845-1.321l-1.457-2.736l-0.75,0.4L44.406,19.107z"/>
	<path d="M50.146,9.916c-0.074,0.18-0.069,0.354,0.009,0.539c0.073,0.173,0.193,0.298,0.373,0.372
		c0.18,0.074,0.37,0.075,0.543,0.003c0.173-0.073,0.305-0.209,0.379-0.389c0.073-0.18,0.068-0.354-0.004-0.527
		c-0.077-0.184-0.198-0.31-0.378-0.384c-0.18-0.074-0.37-0.075-0.543-0.003C50.352,9.6,50.22,9.736,50.146,9.916L50.146,9.916z
		 M53.749,18.327l0.784-0.328l-2.564-6.122l-0.784,0.328L53.749,18.327z"/>
	<path d="M60.034,6.384l1.105,3.622c-0.458-0.344-0.93-0.565-1.414-0.653c-0.488-0.1-0.999-0.061-1.513,0.096
		c-0.897,0.274-1.575,0.834-2.024,1.676c-0.433,0.851-0.519,1.727-0.241,2.635c0.285,0.932,0.848,1.623,1.679,2.075
		c0.834,0.464,1.698,0.554,2.595,0.28c0.502-0.153,0.936-0.403,1.304-0.738c0.357-0.331,0.644-0.758,0.863-1.282l0.332,1.088
		l0.813-0.248l-2.686-8.799L60.034,6.384z M60.521,10.417c0.639,0.341,1.065,0.877,1.288,1.607c0.146,0.478,0.17,0.941,0.075,1.402
		c-0.098,0.448-0.318,0.842-0.643,1.189c-0.337,0.352-0.723,0.587-1.165,0.722c-0.442,0.135-0.894,0.155-1.345,0.045
		c-0.452-0.111-0.861-0.338-1.212-0.675s-0.598-0.719-0.737-1.173c-0.135-0.443-0.159-0.905-0.056-1.381
		c0.107-0.464,0.323-0.87,0.636-1.214c0.313-0.344,0.699-0.579,1.153-0.718c0.705-0.215,1.38-0.146,2.008,0.198L60.521,10.417z"/>
	<path d="M73.726,13.341c1.109-0.086,1.969-0.315,2.555-0.686c0.598-0.372,1.058-0.909,1.391-1.625
		c0.333-0.715,0.472-1.516,0.402-2.413c-0.08-1.034-0.398-1.913-0.943-2.623c-0.544-0.71-1.271-1.193-2.154-1.425
		c-0.627-0.165-1.608-0.202-2.941-0.099l-1.857,0.144l0.692,8.948L73.726,13.341z M71.108,5.42l0.636-0.049
		c1.284-0.099,2.2-0.082,2.774,0.036c0.766,0.179,1.371,0.546,1.842,1.124c0.46,0.591,0.729,1.31,0.795,2.17
		c0.064,0.822-0.07,1.535-0.411,2.138c-0.343,0.591-0.836,1.03-1.492,1.294c-0.473,0.2-1.315,0.34-2.549,0.437l-1.034,0.08
		L71.108,5.42z"/>
	<polygon points="83.089,12.565 81.623,15.462 82.534,15.514 87.002,6.69 86.091,6.638 83.582,11.592 81.586,6.383 80.7,6.333 	"/>
	<path d="M88.623,13.616l0.836,0.152l0.433-2.386c0.156-0.861,0.301-1.445,0.447-1.761c0.213-0.47,0.56-0.839,1.025-1.097
		c0.454-0.261,0.939-0.35,1.457-0.256c0.442,0.08,0.779,0.256,1.021,0.529c0.232,0.258,0.369,0.626,0.39,1.074
		c0.017,0.257-0.038,0.768-0.175,1.518l-0.564,3.112l0.836,0.152l0.61-3.358c0.161-0.886,0.192-1.553,0.084-2.005
		c-0.109-0.452-0.316-0.845-0.653-1.16c-0.336-0.315-0.745-0.516-1.237-0.606c-0.479-0.087-0.955-0.059-1.4,0.089
		c-0.446,0.148-0.888,0.411-1.301,0.793l0.213-1.168l-0.837-0.152L88.623,13.616z"/>
	<path d="M104.636,10.835l-0.382,1.164c-0.177-0.545-0.436-0.998-0.781-1.348c-0.341-0.362-0.78-0.625-1.292-0.793
		c-0.891-0.293-1.768-0.225-2.619,0.205c-0.845,0.446-1.418,1.113-1.716,2.016c-0.304,0.926-0.24,1.816,0.179,2.663
		c0.415,0.86,1.069,1.43,1.96,1.723c0.499,0.164,0.997,0.209,1.491,0.148c0.481-0.066,0.963-0.249,1.443-0.552l-0.354,1.081
		l0.808,0.265l2.071-6.306L104.636,10.835z M103.511,11.978c0.327,0.647,0.366,1.331,0.127,2.055
		c-0.155,0.475-0.402,0.868-0.746,1.189c-0.339,0.31-0.744,0.505-1.211,0.602c-0.478,0.093-0.929,0.063-1.367-0.081
		c-0.439-0.144-0.82-0.388-1.126-0.738c-0.307-0.351-0.51-0.773-0.603-1.25c-0.093-0.478-0.075-0.933,0.073-1.384
		c0.144-0.439,0.392-0.832,0.75-1.161c0.354-0.318,0.764-0.525,1.219-0.626c0.454-0.101,0.905-0.071,1.356,0.077
		C102.685,10.891,103.196,11.336,103.511,11.978L103.511,11.978z"/>
	<path d="M105.928,18.389l0.752,0.396l1.312-2.488c0.385-0.73,0.748-1.231,1.084-1.52c0.33-0.278,0.697-0.438,1.118-0.485
		c0.409-0.053,0.799,0.012,1.142,0.193c0.31,0.163,0.523,0.375,0.663,0.646c0.139,0.271,0.189,0.552,0.145,0.853
		c-0.047,0.301-0.252,0.8-0.625,1.507l-1.587,3.008l0.753,0.396l1.213-2.3c0.442-0.841,0.823-1.403,1.16-1.692
		c0.33-0.278,0.703-0.449,1.118-0.513c0.42-0.047,0.812,0.017,1.176,0.21c0.298,0.157,0.522,0.375,0.656,0.629
		c0.146,0.26,0.201,0.53,0.167,0.809c-0.033,0.279-0.217,0.734-0.55,1.364l-1.69,3.207l0.773,0.408l1.691-3.207
		c0.385-0.73,0.599-1.323,0.646-1.764c0.038-0.447-0.043-0.857-0.248-1.219c-0.199-0.373-0.511-0.665-0.909-0.875
		c-0.441-0.233-0.903-0.321-1.402-0.288c-0.516,0.039-1.011,0.23-1.505,0.549c0.069-0.401,0.065-0.742,0-1.018
		c-0.062-0.259-0.19-0.524-0.397-0.775c-0.196-0.245-0.432-0.44-0.72-0.591c-0.42-0.221-0.877-0.321-1.386-0.293
		c-0.364,0.02-0.775,0.157-1.238,0.393l0.536-1.017l-0.752-0.396L105.928,18.389z"/>
	<path d="M122.027,17.062c-0.191,0.034-0.336,0.132-0.45,0.296c-0.107,0.154-0.148,0.323-0.114,0.514s0.135,0.353,0.289,0.46
		s0.341,0.145,0.532,0.111c0.191-0.034,0.335-0.132,0.443-0.286c0.113-0.164,0.154-0.333,0.12-0.525
		c-0.033-0.191-0.135-0.353-0.288-0.46C122.405,17.065,122.219,17.027,122.027,17.062L122.027,17.062z M116.865,24.617l0.698,0.485
		l3.789-5.45l-0.698-0.486L116.865,24.617z"/>
	<path d="M128.208,25.73c-0.082-0.348-0.236-0.708-0.461-1.08c-0.226-0.371-0.509-0.694-0.843-0.977
		c-0.534-0.453-1.117-0.751-1.748-0.876s-1.249-0.092-1.854,0.117c-0.604,0.209-1.115,0.562-1.527,1.048
		c-0.614,0.725-0.873,1.57-0.777,2.52c0.105,0.958,0.554,1.781,1.355,2.461c0.524,0.445,1.079,0.736,1.65,0.875
		c0.58,0.148,1.148,0.154,1.693-0.006l-0.225-0.78c-0.978,0.187-1.839-0.035-2.582-0.666c-0.409-0.348-0.709-0.748-0.879-1.205
		c-0.18-0.464-0.227-0.93-0.134-1.408c0.092-0.495,0.288-0.92,0.595-1.282c0.485-0.572,1.09-0.879,1.84-0.932
		c0.74-0.043,1.426,0.193,2.046,0.719c0.781,0.663,1.141,1.476,1.088,2.447l0.79,0.112C128.293,26.44,128.29,26.076,128.208,25.73
		L128.208,25.73z"/>
	<path d="M132.619,29.17c-0.36-0.382-0.778-0.589-1.264-0.613c-0.469-0.023-0.897,0.141-1.263,0.484
		c-0.281,0.266-0.451,0.579-0.522,0.939c-0.073,0.36-0.019,0.875,0.175,1.518c0.168,0.597,0.243,1.024,0.218,1.271
		c-0.024,0.247-0.129,0.447-0.311,0.618c-0.218,0.205-0.486,0.286-0.813,0.267c-0.317-0.027-0.596-0.16-0.836-0.415
		c-0.334-0.355-0.469-0.863-0.414-1.516l-0.813,0.028c-0.056,0.361-0.031,0.733,0.09,1.099s0.306,0.69,0.572,0.973
		c0.394,0.419,0.855,0.636,1.395,0.661c0.548,0.017,1.013-0.164,1.404-0.532c0.282-0.266,0.46-0.588,0.534-0.966
		c0.063-0.369-0.009-0.902-0.191-1.588c-0.169-0.563-0.227-0.971-0.193-1.226c0.025-0.247,0.12-0.456,0.275-0.602
		c0.173-0.163,0.396-0.236,0.67-0.218c0.273,0.017,0.5,0.13,0.689,0.33c0.3,0.318,0.436,0.791,0.434,1.428l0.787,0.015
		C133.24,30.267,133.039,29.616,132.619,29.17L132.619,29.17z"/>
	<polygon points="133.394,40.85 135.821,44.474 136.548,43.987 134.621,41.11 141.35,36.602 140.849,35.854 	"/>
	<path d="M145.536,48.553l-1.094,0.552c0.261-0.51,0.398-1.013,0.402-1.505c0.016-0.498-0.108-0.995-0.351-1.475
		c-0.422-0.838-1.089-1.411-1.996-1.71c-0.912-0.282-1.789-0.218-2.637,0.209c-0.871,0.439-1.455,1.112-1.761,2.007
		c-0.315,0.901-0.257,1.767,0.165,2.605c0.236,0.469,0.557,0.854,0.948,1.159c0.387,0.295,0.857,0.506,1.411,0.633l-1.016,0.512
		l0.382,0.759l5.927-2.988L145.536,48.553z M143.932,48.564c-0.227,0.688-0.684,1.198-1.363,1.541
		c-0.446,0.225-0.899,0.327-1.369,0.312c-0.458-0.021-0.884-0.171-1.281-0.432c-0.404-0.273-0.701-0.613-0.909-1.026
		s-0.305-0.854-0.272-1.318s0.187-0.906,0.46-1.309c0.272-0.404,0.606-0.712,1.031-0.926c0.412-0.208,0.865-0.31,1.352-0.289
		c0.475,0.027,0.912,0.17,1.304,0.421c0.393,0.25,0.689,0.59,0.903,1.014C144.118,47.211,144.165,47.887,143.932,48.564
		L143.932,48.564z"/>
	<path d="M141.379,55.812l1.162-0.389c-0.332,0.467-0.541,0.945-0.627,1.436c-0.075,0.486-0.022,0.996,0.148,1.506
		c0.297,0.889,0.875,1.553,1.725,1.967c0.866,0.422,1.743,0.485,2.656,0.179c0.913-0.305,1.588-0.887,2.018-1.729
		c0.442-0.846,0.508-1.712,0.211-2.601c-0.17-0.51-0.428-0.925-0.771-1.284c-0.353-0.343-0.787-0.62-1.317-0.825l3.521-1.177
		l-0.271-0.806l-8.725,2.918L141.379,55.812z M142.968,56.032c0.323-0.649,0.85-1.088,1.572-1.33
		c0.474-0.159,0.937-0.195,1.387-0.108c0.451,0.086,0.862,0.292,1.219,0.607c0.359,0.328,0.604,0.707,0.756,1.157
		c0.143,0.427,0.175,0.877,0.077,1.332c-0.099,0.455-0.316,0.87-0.644,1.23c-0.328,0.36-0.703,0.617-1.154,0.768
		c-0.449,0.151-0.9,0.183-1.379,0.092c-0.466-0.095-0.89-0.296-1.229-0.604c-0.353-0.304-0.597-0.683-0.748-1.134
		c-0.234-0.7-0.183-1.375,0.145-2.012L142.968,56.032z"/>
	<path d="M149.56,63.534c-0.775-0.481-1.615-0.632-2.514-0.468c-0.91,0.166-1.65,0.632-2.21,1.396
		c-0.561,0.751-0.755,1.637-0.569,2.646c0.182,0.996,0.677,1.757,1.468,2.26c0.793,0.516,1.65,0.689,2.561,0.522
		c0.91-0.166,1.63-0.604,2.185-1.327c0.604-0.797,0.819-1.7,0.635-2.709C150.927,64.833,150.405,64.065,149.56,63.534L149.56,63.534
		z M149.845,67.942c-0.424,0.599-0.994,0.957-1.72,1.09c-0.479,0.088-0.93,0.056-1.379-0.103c-0.459-0.145-0.825-0.408-1.116-0.749
		c-0.293-0.353-0.482-0.763-0.565-1.218c-0.086-0.468-0.055-0.918,0.096-1.352c0.152-0.421,0.399-0.798,0.778-1.095
		c0.362-0.308,0.772-0.498,1.253-0.585c0.725-0.133,1.385,0,1.993,0.41c0.609,0.409,0.978,0.965,1.105,1.666
		C150.416,66.694,150.269,67.344,149.845,67.942L149.845,67.942z"/>
	<path d="M145.235,72.669l0.065,0.873l2.231-0.168c1.159-0.088,1.923-0.095,2.305-0.011c0.496,0.1,0.873,0.273,1.13,0.516
		c0.257,0.244,0.39,0.509,0.411,0.796c0.009,0.125-0.017,0.277-0.079,0.457l0.745,0.396c0.129-0.286,0.186-0.54,0.167-0.777
		c-0.022-0.311-0.133-0.604-0.342-0.877s-0.516-0.525-0.922-0.758l0.972-0.073l-0.065-0.872L145.235,72.669z"/>
	<path d="M152.104,83.871l-1.226-0.04c0.473-0.322,0.836-0.698,1.075-1.128c0.252-0.43,0.38-0.926,0.397-1.463
		c0.03-0.938-0.279-1.76-0.933-2.457c-0.665-0.685-1.466-1.048-2.416-1.079c-0.974-0.032-1.81,0.279-2.506,0.919
		c-0.709,0.639-1.072,1.428-1.103,2.365c-0.018,0.524,0.079,1.016,0.276,1.472c0.198,0.444,0.51,0.855,0.936,1.231l-1.138-0.037
		l-0.027,0.85l6.634,0.216L152.104,83.871z M150.69,83.112c-0.529,0.495-1.174,0.725-1.937,0.7c-0.5-0.017-0.946-0.144-1.351-0.383
		c-0.394-0.237-0.694-0.572-0.918-0.992c-0.224-0.433-0.322-0.873-0.308-1.336c0.016-0.463,0.143-0.896,0.393-1.289
		s0.598-0.706,1.031-0.929c0.432-0.223,0.874-0.334,1.348-0.319c0.463,0.015,0.909,0.142,1.325,0.394
		c0.404,0.251,0.719,0.586,0.942,0.994c0.225,0.406,0.322,0.848,0.308,1.323C151.5,82.013,151.217,82.629,150.69,83.112
		L150.69,83.112z"/>
	<polygon points="151.515,89.068 151.681,87.918 150.951,87.812 150.784,88.962 144.945,88.116 144.823,88.957 150.662,89.803 
		150.468,91.139 151.198,91.245 151.392,89.909 153.841,90.264 153.963,89.423 	"/>
	<path d="M149.607,94.563c-0.5-0.764-1.198-1.255-2.082-1.483c-0.896-0.232-1.764-0.122-2.593,0.334
		c-0.824,0.445-1.375,1.167-1.632,2.159c-0.254,0.979-0.126,1.879,0.379,2.668c0.502,0.802,1.207,1.32,2.103,1.553
		c0.895,0.232,1.732,0.14,2.54-0.283c0.883-0.468,1.46-1.196,1.717-2.188C150.3,96.318,150.15,95.401,149.607,94.563L149.607,94.563
		z M148.008,98.681c-0.637,0.364-1.305,0.449-2.018,0.265c-0.472-0.123-0.867-0.341-1.207-0.675
		c-0.355-0.324-0.576-0.719-0.696-1.149c-0.117-0.443-0.116-0.895,0-1.343c0.119-0.46,0.338-0.855,0.656-1.187
		c0.314-0.317,0.699-0.555,1.167-0.666c0.459-0.126,0.911-0.125,1.382-0.003c0.714,0.186,1.256,0.584,1.636,1.212
		c0.379,0.628,0.48,1.287,0.301,1.978C149.052,97.789,148.645,98.316,148.008,98.681L148.008,98.681z"/>
	<path d="M141.767,101.131l-0.309,0.819l2.094,0.789c1.088,0.41,1.783,0.726,2.096,0.964c0.407,0.301,0.676,0.616,0.806,0.945
		c0.13,0.33,0.138,0.627,0.036,0.896c-0.044,0.117-0.132,0.244-0.264,0.381l0.508,0.672c0.237-0.203,0.396-0.411,0.479-0.634
		c0.11-0.292,0.134-0.604,0.061-0.938c-0.074-0.335-0.246-0.694-0.517-1.076l0.912,0.344l0.31-0.818L141.767,101.131z"/>
	<polygon points="139.471,107.959 137.373,105.481 136.971,106.3 143.36,113.85 143.762,113.031 140.175,108.792 145.75,108.98 
		146.142,108.184 	"/>
	<polygon points="55.263,150.89 57.425,143.588 61.639,152.778 61.854,152.842 64.707,143.204 63.741,142.918 61.559,150.288 
		57.338,141.023 57.123,140.959 54.27,150.597 	"/>
	<path d="M71.181,144.766c-0.834,0.394-1.532,0.993-2.061,1.764c-0.531,0.784-0.844,1.656-0.927,2.618
		c-0.124,1.45,0.287,2.722,1.218,3.826c0.931,1.105,2.144,1.716,3.622,1.842c1.464,0.125,2.75-0.285,3.855-1.217
		c1.105-0.931,1.727-2.129,1.852-3.593c0.127-1.479-0.282-2.777-1.214-3.87c-0.931-1.104-2.158-1.716-3.678-1.846
		c-0.934-0.08-1.82,0.083-2.668,0.474L71.181,144.766z M75.907,146.027c0.636,0.447,1.122,1.009,1.43,1.682
		c0.322,0.674,0.441,1.414,0.373,2.21c-0.068,0.795-0.311,1.505-0.744,2.128c-0.419,0.625-0.979,1.096-1.681,1.416
		c-0.687,0.32-1.429,0.44-2.196,0.374c-1.171-0.1-2.127-0.589-2.88-1.482c-0.752-0.894-1.085-1.934-0.984-3.119
		c0.069-0.81,0.313-1.52,0.745-2.143c0.433-0.623,0.993-1.095,1.696-1.429c0.688-0.321,1.402-0.456,2.155-0.392
		C74.575,145.336,75.269,145.593,75.907,146.027L75.907,146.027z"/>
	<path d="M87.09,144.281l-3.567,10.526l1.112-0.128l1.182-3.461l4.325-0.496l1.934,3.104l1.071-0.123l-5.806-9.451L87.09,144.281z
		 M89.584,149.8l-3.421,0.394l1.294-3.827L89.584,149.8z"/>
	<path d="M99.311,141.732l-1.503,11.013l1.068-0.337l0.501-3.623l4.152-1.311l2.489,2.68l1.027-0.324l-7.497-8.175L99.311,141.732z
		 M102.808,146.676l-3.283,1.036l0.543-4.003L102.808,146.676z"/>
</g>
</svg>
